<svg width="16" height="20" viewBox="0 0 16 20" fill="none" xmlns="http://www.w3.org/2000/svg">
<g clip-path="url(#clip0_13618_39669)">
<path d="M14.6673 11.3902V12.0035C14.6665 13.4411 14.201 14.8399 13.3402 15.9914C12.4794 17.1428 11.2695 17.9851 9.89089 18.3928C8.51227 18.8004 7.03882 18.7514 5.6903 18.2532C4.34177 17.755 3.19042 16.8342 2.40796 15.6282C1.6255 14.4222 1.25385 12.9955 1.34844 11.561C1.44303 10.1265 1.99879 8.76104 2.93284 7.66821C3.86689 6.57537 5.12917 5.81375 6.53144 5.49692C7.93371 5.1801 9.40083 5.32505 10.714 5.91016M14.6673 6.66634L8.00065 13.3397L6.00065 11.3397" stroke="#716DA5" stroke-width="2" stroke-linecap="round" stroke-linejoin="round"/>
</g>
<defs>
<clipPath id="clip0_13618_39669">
<rect width="16" height="16" fill="white" transform="translate(0 4)"/>
</clipPath>
</defs>
</svg>
